<?xml version="1.0" encoding="utf-8"?>
<!-- Generator: Adobe Illustrator 24.3.0, SVG Export Plug-In . SVG Version: 6.00 Build 0)  -->
<svg version="1.1" id="Layer_1" xmlns="http://www.w3.org/2000/svg" xmlns:xlink="http://www.w3.org/1999/xlink" x="0px" y="0px"
	 viewBox="0 0 101.6 43.9" style="enable-background:new 0 0 101.6 43.9;" xml:space="preserve">
<style type="text/css">
	.st0{fill:#EF3054;}
	.st1{fill:#306B34;}
	.st2{fill:#323030;}
	.st3{fill:#8EA604;}
	.st4{fill:#3E3C3B;}
	.st5{fill:none;stroke:#FFFFFF;stroke-width:0.35;stroke-miterlimit:10;}
	.st6{fill:none;stroke:#FFFFFF;stroke-width:0.35;stroke-miterlimit:10;stroke-dasharray:5.8896,2.9448;}
</style>
<g>
	<path class="st0" d="M69.4,10.9c0.8,0.3,1,1.1,1.1,1.8c0.1,0.7,0.2,1.5-0.1,2.1c-0.3,0.7-1.2,0.8-1.9,0.8
		c-3.7,0.4-7.4,0.9-11.2,1.1c-1.1,0.1-9.8,0.9-9.8-0.3c0-0.1,0.3-1.3-0.1-2.5c0,0-0.5-1.4,0.8-1.7C48.3,12.3,68.8,10.6,69.4,10.9z"
		/>
	<path class="st1" d="M89.5,22.5c0,0,6.7-1.7,9,3.4c0.1,0.2,0,0.5-0.3,0.5c-1.5,0.3-6.7,1.4-8.5,4.6c0,0-2.2,2.7-7.3,2.3
		c-0.1,0-0.2-0.1-0.2-0.3C82.5,31.5,83.8,23.4,89.5,22.5z"/>
	<path class="st1" d="M61.7,26.8c0,0,0,3.8-1.5,5h-18c0.2-0.8,0.8-3.1,1.6-4.4c0,0,4-7.6,12.4-6.5C56.2,20.9,62.2,20.9,61.7,26.8z"
		/>
	<path class="st2" d="M54.1,33.2c-0.5,1-1.5,1.7-2.7,1.7s-2.2-0.7-2.7-1.7H44c0.6,3.5,3.7,6.2,7.4,6.2s6.8-2.7,7.4-6.2H54.1z"/>
	<path class="st2" d="M98.3,27.9c-1.2,0.2-3,0.7-4.6,1.5c0.8,0.5,1.2,1.4,1.2,2.4c0,1.7-1.3,3-3,3c-1.1,0-2.2-0.7-2.7-1.6
		c-1,0.6-2.4,1.2-4.3,1.4c1.1,2.7,3.8,4.7,7,4.7c4.1,0,7.5-3.4,7.5-7.5C99.4,30.4,99,29.1,98.3,27.9z"/>
	<path class="st3" d="M88.2,21.7c0,0.3-0.1,0.6-0.4,0.7l-3.5,1.4c-0.8,0.3-0.8,2.2-1,2.9c-0.3,1.1-0.8,2.1-1.3,3.1
		c-0.7,1.2-1.6,2.4-2.9,3.1h-17c-0.2,0-0.3-0.1-0.4-0.3v-0.1c-0.1-0.2-0.1-0.3,0-0.5c1.2-1.7,1.3-4.4,1.3-5.2c0.2-2.1-0.3-3.8-1.5-5
		c-1.8-2-4.6-2.1-5.1-2.2c-3.8-0.5-7.3,0.6-10.3,3.2c-2,1.7-3.1,3.6-3.3,3.9C42,28,41.5,29.8,41.2,31c0,0.2-0.2,0.7-0.2,0.7
		c0,0.1-0.1,0.1-0.2,0.1H40c-0.1,0-0.2-0.1-0.2-0.3c0.1-0.2,0.2-0.6,0.5-1.1c0-0.1,0.1-0.2,0.1-0.3c0,0,1.9-8.2,7.4-10.7
		c0,0,0-1.4,1.4-1.2c0,0,13.7-0.4,19.1-1.6c0,0,1.3,0.7-0.4,1.6c-1.6,1.2-3.1,2.8-3.7,4.7c-0.5,1.4-0.2,2.9,0.8,4
		c1.5,1.7,3.7,1.4,5.7,1.5c2.2,0.1,7.1-0.3,7.2-0.4c0.4-0.5,2.4-3,2.6-3.8c0.2-0.7-0.1-1.5-0.3-2.1c-0.5-1.4-1.6-5.2-1.7-5.7
		c-0.2-1.2,0.4-2.2,1.5-2.6c0.2-0.1,0.4-0.1,0.5-0.2c0.3-0.1,0.4-0.5,0.4-0.8c0-0.5-2.3-4.3-2.8-4.7c0,0-0.6,0.2-1.8,0.4l0,0
		c0.1,0.3-0.1,0.6-0.4,0.7l-0.2,0.1c-0.3,0.1-0.5-0.1-0.6-0.3l-2.2,0.8c0,0-0.8-0.2-0.3-0.9l2.2-0.8l0,0l0,0
		c-0.1-0.3,0.1-0.6,0.4-0.7l0.2-0.1c0.2-0.1,0.5,0,0.6,0.3l2.1-1.1c0,0-0.4-0.9,1.2-1.2c0,0,0.2-0.2,0.5-0.5
		c0.5-0.6,1.3-1.4,1.7-1.3c0.1-0.1,0.3-0.2,0.5-0.3c0.2-0.1,0.5-0.1,0.7,0.1c0.6,0.7,1,1.8,1,3.1c0,0.4,0,0.8-0.1,1.1
		C83.5,7.8,83.3,8,83,8c-0.4,0-1,0-1.3-0.1c-0.1,0-0.3,0.5-0.3,0.5c-0.1,0.3,4.2,8.9,4.2,8.9c0.4,0.2,0.8,0.5,1.2,0.8
		s0.8,0.7,1.1,1.1C88.3,20.2,88.2,21,88.2,21.7z"/>
	<path d="M42.6,23.4c-0.9,1.4-1.6,2.8-2.1,4c-0.7-0.4-0.9-1.3-0.5-2l0.7-1.3C41.2,23.5,42,23.2,42.6,23.4z"/>
</g>
<g>
	<path class="st4" d="M2.9,31.8l1.9-8c2.9-1.3,6.3-1.5,10.2-0.5c1.3,0.3,4,1.5,5.2,2.5c2.2,1.8,2.9,3.4,4.8,4.9
		c2.1,1.7,3.7,2.4,5.1,2.8c1.4,0.3,2.7,0.5,4.1,0.3c2-0.2,3.8-0.7,5.5-1.4l-1,3.8c-3.3,1.1-7,2.5-10.5,1.6c-1.3-0.3-2.6-0.8-3.7-1.3
		c-1.2-0.5-2.9-1.5-5.1-2.9c-2.7-1.7-5.1-2.3-6.9-2.7c-1.4-0.4-2.8-0.5-4.2-0.4C7,30.7,5.2,31,2.9,31.8z"/>
</g>
<g>
	<g>
		<path class="st5" d="M5.9,26.8c1.4-0.3,2-0.6,2.9-0.7"/>
		<path class="st6" d="M11.8,26.1c2,0.3,3.1,0.7,4.8,1.9c1.9,1.4,5.4,4.7,7.3,5.5c1.9,0.8,3.8,2.1,6.7,2.2c1.1,0,2.3-0.1,3.5-0.2"/>
		<path class="st5" d="M35.6,35.2c1.4-0.2,2.5-0.5,2.9-0.7"/>
	</g>
</g>
</svg>
